<svg width="90.618164" height="55.636719" viewBox="0 0 90.6182 55.6367" fill="none" xmlns="http://www.w3.org/2000/svg" xmlns:xlink="http://www.w3.org/1999/xlink">
	<path id="Vector" d="M6.04 51.81C5.97 52.18 5.85 52.53 5.65 52.85C5.46 53.18 5.22 53.46 4.94 53.69C4.66 53.93 4.34 54.11 4 54.24C3.65 54.37 3.29 54.44 2.91 54.44C2.15 54.44 1.49 54.2 0.92 53.73C0.83 53.66 0.72 53.63 0.59 53.63C0.52 53.63 0.44 53.64 0.37 53.68C0.3 53.71 0.24 53.75 0.19 53.8C0.14 53.85 0.09 53.92 0.06 53.99C0.03 54.06 0.02 54.13 0.02 54.21C0.02 54.38 0.08 54.52 0.2 54.63C1 55.28 1.91 55.6 2.91 55.6C4.11 55.6 5.13 55.17 5.97 54.32C6.81 53.47 7.23 52.43 7.23 51.22C7.23 50.01 6.81 48.98 5.97 48.13C5.13 47.27 4.11 46.84 2.91 46.84C1.9 46.84 0.97 47.19 0.15 47.87C0.05 47.97 0 48.09 0 48.27C0 48.35 0.01 48.43 0.04 48.5C0.06 48.57 0.11 48.64 0.15 48.68C0.21 48.73 0.27 48.78 0.34 48.81C0.41 48.84 0.49 48.85 0.56 48.85C0.7 48.85 0.83 48.8 0.96 48.69C1.24 48.47 1.53 48.3 1.87 48.19C2.19 48.07 2.55 48.02 2.91 48.02C3.3 48.02 3.66 48.08 4 48.21C4.35 48.35 4.67 48.53 4.95 48.76C5.23 49 5.47 49.28 5.65 49.59C5.85 49.91 5.97 50.26 6.04 50.64L2.49 50.64C2.33 50.64 2.19 50.7 2.08 50.81C1.97 50.92 1.92 51.06 1.92 51.22C1.92 51.31 1.93 51.38 1.96 51.46C1.99 51.53 2.03 51.59 2.08 51.64C2.13 51.69 2.19 51.74 2.26 51.76C2.33 51.79 2.41 51.81 2.48 51.81L6.04 51.81L6.04 51.81ZM7.99 47.43C7.99 47.26 8.05 47.13 8.16 47.02C8.27 46.91 8.41 46.85 8.57 46.85C8.73 46.85 8.86 46.91 8.98 47.02C9.09 47.13 9.14 47.27 9.14 47.43L9.14 50.67L12.73 47.02C12.85 46.91 12.99 46.84 13.15 46.84C13.23 46.84 13.3 46.86 13.37 46.88C13.44 46.91 13.5 46.95 13.56 47.01C13.61 47.07 13.65 47.12 13.68 47.2C13.71 47.27 13.73 47.35 13.73 47.43C13.73 47.59 13.67 47.73 13.56 47.84L10.72 50.72L13.62 54.69C13.68 54.79 13.72 54.9 13.72 55.02C13.72 55.1 13.71 55.17 13.68 55.25C13.65 55.32 13.61 55.38 13.56 55.43C13.51 55.49 13.45 55.53 13.38 55.57C13.31 55.6 13.24 55.62 13.16 55.62C12.94 55.62 12.78 55.53 12.68 55.37L9.9 51.55L9.14 52.33L9.14 55.04C9.14 55.2 9.08 55.34 8.97 55.46C8.86 55.57 8.72 55.62 8.56 55.62C8.4 55.62 8.26 55.57 8.15 55.46C8.04 55.34 7.98 55.2 7.98 55.05L7.98 47.45L7.99 47.43ZM18.06 48.02C17.62 48.02 17.21 48.09 16.84 48.26C16.47 48.41 16.13 48.65 15.81 48.97C15.5 49.28 15.27 49.63 15.11 50C14.96 50.37 14.88 50.78 14.88 51.24C14.88 52.13 15.2 52.88 15.81 53.51C16.43 54.13 17.18 54.45 18.06 54.45C18.94 54.45 19.69 54.13 20.31 53.51C20.92 52.88 21.24 52.12 21.24 51.24C21.24 50.35 20.92 49.59 20.31 48.97C19.68 48.33 18.93 48.02 18.06 48.02ZM22.39 51.23C22.39 52.44 21.96 53.47 21.12 54.33C20.27 55.19 19.25 55.61 18.06 55.61C16.86 55.61 15.84 55.18 15 54.33C14.16 53.47 13.74 52.44 13.74 51.23C13.74 50.02 14.16 48.99 15 48.14C15.85 47.28 16.87 46.85 18.06 46.85C19.25 46.85 20.27 47.28 21.12 48.14C21.54 48.56 21.86 49.04 22.07 49.55C22.28 50.06 22.39 50.62 22.39 51.23ZM23.93 55.26C23.82 55.5 23.64 55.62 23.4 55.62C23.32 55.62 23.24 55.6 23.17 55.58C23.1 55.55 23.04 55.51 22.99 55.45C22.94 55.39 22.9 55.34 22.87 55.27C22.84 55.2 22.82 55.12 22.82 55.03C22.82 54.96 22.84 54.88 22.87 54.79L25.77 47.25C25.89 46.98 26.07 46.84 26.32 46.84C26.57 46.84 26.75 46.98 26.87 47.25L29.77 54.79C29.8 54.87 29.82 54.95 29.82 55.03C29.82 55.12 29.8 55.2 29.77 55.27C29.75 55.34 29.7 55.39 29.65 55.45C29.6 55.5 29.54 55.54 29.47 55.58C29.4 55.6 29.32 55.62 29.25 55.62C29 55.62 28.82 55.5 28.71 55.26L26.33 49.04L23.94 55.26L23.93 55.26ZM34.58 48.02C34.14 48.02 33.73 48.09 33.36 48.26C32.99 48.41 32.65 48.65 32.33 48.97C32.02 49.28 31.78 49.63 31.63 50C31.48 50.37 31.4 50.78 31.4 51.24C31.4 52.13 31.72 52.88 32.33 53.51C32.95 54.13 33.7 54.45 34.58 54.45C35.46 54.45 36.21 54.13 36.83 53.51C37.44 52.88 37.76 52.12 37.76 51.24C37.76 50.35 37.44 49.59 36.83 48.97C36.2 48.33 35.45 48.02 34.58 48.02ZM38.91 51.23C38.91 52.44 38.48 53.47 37.64 54.33C36.79 55.19 35.77 55.61 34.58 55.61C33.38 55.61 32.36 55.18 31.52 54.33C30.67 53.47 30.26 52.44 30.26 51.23C30.26 50.02 30.68 48.99 31.52 48.14C32.37 47.28 33.39 46.85 34.58 46.85C35.77 46.85 36.78 47.28 37.64 48.14C38.06 48.56 38.38 49.04 38.59 49.55C38.8 50.06 38.91 50.62 38.91 51.23ZM39.74 47.43C39.74 47.35 39.75 47.27 39.78 47.2C39.81 47.13 39.85 47.07 39.91 47.01C39.96 46.96 40.02 46.92 40.09 46.88C40.15 46.86 40.23 46.84 40.31 46.84L44.89 46.84C44.97 46.84 45.04 46.86 45.11 46.88C45.18 46.91 45.25 46.95 45.3 47.01C45.35 47.06 45.39 47.12 45.43 47.2C45.45 47.27 45.47 47.35 45.47 47.43C45.47 47.51 45.45 47.59 45.43 47.66C45.4 47.73 45.36 47.79 45.3 47.84C45.25 47.9 45.19 47.94 45.11 47.97C45.04 48 44.97 48.01 44.89 48.01L40.88 48.01L40.88 55.03C40.88 55.11 40.87 55.18 40.83 55.25C40.81 55.32 40.77 55.39 40.71 55.43C40.65 55.48 40.6 55.53 40.52 55.56C40.45 55.6 40.38 55.61 40.31 55.61C40.13 55.61 39.98 55.55 39.88 55.43C39.78 55.3 39.73 55.15 39.73 54.98C39.73 54.97 39.74 54.96 39.75 54.94L39.75 47.43L39.74 47.43ZM53.17 55.03L53.17 47.43C53.17 47.35 53.16 47.27 53.13 47.2C53.1 47.13 53.06 47.07 53.01 47.01C52.96 46.96 52.9 46.92 52.83 46.88C52.76 46.86 52.69 46.84 52.6 46.84C52.44 46.84 52.29 46.91 52.16 47.05L47.35 53.33L47.35 47.42C47.35 47.26 47.29 47.12 47.18 47.01C47.07 46.9 46.94 46.84 46.78 46.84C46.62 46.84 46.49 46.9 46.38 47.01C46.26 47.12 46.21 47.26 46.21 47.42L46.21 55.02C46.21 55.1 46.22 55.18 46.25 55.25C46.28 55.32 46.32 55.38 46.38 55.43C46.43 55.48 46.49 55.53 46.56 55.56C46.63 55.59 46.71 55.6 46.78 55.6C46.95 55.6 47.1 55.53 47.22 55.4L52.04 49.11L52.04 55.02C52.04 55.18 52.1 55.32 52.21 55.43C52.32 55.55 52.45 55.6 52.61 55.6C52.77 55.6 52.9 55.55 53.01 55.43C53.12 55.32 53.18 55.18 53.18 55.02L53.17 55.03ZM60.67 53.63C60.74 53.63 60.82 53.65 60.89 53.68C60.96 53.72 61.02 53.75 61.07 53.81C61.12 53.86 61.16 53.92 61.2 53.99C61.23 54.06 61.24 54.14 61.24 54.22C61.24 54.37 61.18 54.51 61.06 54.63C60.26 55.29 59.36 55.61 58.35 55.61C57.15 55.61 56.13 55.18 55.29 54.33C54.44 53.47 54.02 52.44 54.02 51.23C54.02 50.02 54.44 48.99 55.29 48.14C56.13 47.28 57.15 46.85 58.35 46.85C59.36 46.85 60.29 47.19 61.12 47.88C61.22 47.97 61.27 48.11 61.27 48.28C61.27 48.36 61.26 48.44 61.23 48.51C61.2 48.58 61.16 48.64 61.11 48.69C61.06 48.75 60.99 48.79 60.92 48.82C60.86 48.85 60.78 48.86 60.7 48.86C60.56 48.86 60.43 48.8 60.31 48.7C60.04 48.48 59.73 48.31 59.4 48.2C59.07 48.08 58.72 48.02 58.35 48.02C57.47 48.02 56.72 48.34 56.1 48.97C55.48 49.6 55.18 50.35 55.18 51.24C55.18 52.14 55.48 52.9 56.1 53.52C56.72 54.14 57.47 54.46 58.35 54.46C59.11 54.46 59.77 54.22 60.34 53.75C60.44 53.69 60.55 53.66 60.68 53.65L60.67 53.63ZM68 48.02L65.86 48.02L65.86 55.03C65.86 55.2 65.81 55.33 65.7 55.44C65.59 55.55 65.45 55.61 65.29 55.61C65.13 55.61 64.99 55.55 64.88 55.44C64.77 55.33 64.71 55.2 64.71 55.03L64.71 48.02L62.58 48.02C62.42 48.02 62.28 47.96 62.17 47.85C62.06 47.74 62 47.59 62 47.43C62 47.27 62.06 47.13 62.17 47.02C62.28 46.91 62.42 46.85 62.58 46.85L67.99 46.85C68.15 46.85 68.28 46.91 68.4 47.02C68.51 47.13 68.57 47.27 68.57 47.43C68.57 47.59 68.51 47.74 68.4 47.85C68.29 47.96 68.15 48.02 67.99 48.02L68 48.02ZM76.3 55.03L76.3 47.43C76.3 47.36 76.29 47.28 76.26 47.21C76.23 47.14 76.19 47.07 76.14 47.02C76.08 46.97 76.03 46.93 75.96 46.89C75.89 46.86 75.81 46.85 75.73 46.85C75.56 46.85 75.42 46.92 75.29 47.06L70.47 53.34L70.47 47.43C70.47 47.26 70.42 47.13 70.31 47.02C70.2 46.91 70.07 46.85 69.91 46.85C69.75 46.85 69.61 46.91 69.5 47.02C69.39 47.13 69.34 47.26 69.34 47.43L69.34 55.03C69.34 55.11 69.35 55.19 69.38 55.26C69.41 55.33 69.45 55.39 69.5 55.44C69.56 55.49 69.61 55.53 69.69 55.57C69.76 55.6 69.84 55.61 69.91 55.61C70.08 55.61 70.22 55.54 70.35 55.41L75.17 49.12L75.17 55.03C75.17 55.19 75.22 55.33 75.34 55.44C75.45 55.55 75.58 55.61 75.74 55.61C75.9 55.61 76.03 55.55 76.14 55.44C76.25 55.33 76.31 55.19 76.31 55.03L76.3 55.03ZM77.12 47.43C77.12 47.27 77.18 47.14 77.29 47.02C77.4 46.91 77.54 46.86 77.7 46.86C77.86 46.86 78 46.91 78.11 47.02C78.22 47.14 78.28 47.28 78.28 47.43L78.28 50.67L81.87 47.03C81.99 46.91 82.12 46.85 82.28 46.85C82.36 46.85 82.44 46.86 82.51 46.89C82.58 46.92 82.64 46.96 82.69 47.02C82.74 47.07 82.78 47.13 82.82 47.21C82.85 47.28 82.86 47.36 82.86 47.43C82.86 47.59 82.8 47.74 82.69 47.85L79.86 50.72L82.76 54.7C82.83 54.8 82.86 54.91 82.86 55.03C82.86 55.1 82.85 55.18 82.82 55.25C82.79 55.32 82.75 55.39 82.7 55.44C82.65 55.5 82.59 55.54 82.52 55.58C82.45 55.61 82.38 55.62 82.3 55.62C82.08 55.62 81.92 55.54 81.82 55.38L79.04 51.56L78.28 52.33L78.28 55.05C78.28 55.21 78.22 55.35 78.11 55.46C78 55.58 77.86 55.63 77.7 55.63C77.54 55.63 77.4 55.58 77.29 55.46C77.18 55.35 77.12 55.21 77.12 55.06L77.12 47.45L77.12 47.43ZM88.06 51.5L87.12 49.04L86.17 51.5L88.05 51.5L88.06 51.5ZM83.69 54.77L86.58 47.25C86.7 46.99 86.88 46.86 87.12 46.86C87.38 46.86 87.56 46.99 87.67 47.25L90.57 54.8C90.6 54.87 90.61 54.96 90.61 55.04C90.61 55.2 90.56 55.34 90.45 55.45C90.34 55.56 90.2 55.62 90.04 55.62C89.88 55.62 89.75 55.56 89.64 55.45C89.58 55.39 89.54 55.33 89.5 55.27L88.51 52.67L85.74 52.67L84.73 55.27C84.7 55.33 84.66 55.39 84.6 55.45C84.49 55.56 84.35 55.62 84.19 55.62C84.03 55.62 83.9 55.56 83.79 55.45C83.68 55.34 83.62 55.2 83.62 55.04C83.62 54.95 83.64 54.87 83.69 54.77L83.69 54.77Z" fill="#FFFFFF" fill-opacity="1.000000" fill-rule="nonzero"/>
	<path id="Vector" d="M33.07 0C41.48 0 48.75 4.94 52.22 12.1L43.76 12.1C41.15 9.09 37.33 7.2 33.07 7.2C25.96 7.2 22.03 12.53 22.08 12.46C19.84 14.55 16.11 12.98 16.11 9.8C16.11 8.9 16.44 8.08 16.96 7.45C20.88 2.89 26.64 0 33.07 0L33.07 0ZM52.19 31.19L52.2 31.17C52.29 30.98 52.38 30.79 52.46 30.6L60.6 13.19C60.81 12.8 61.22 12.53 61.69 12.53C62.21 12.52 62.66 12.83 62.87 13.29L62.88 13.29C65.68 18.57 68.45 23.79 71.23 29.08C72.46 31.39 71.65 34.27 69.41 35.5C67.17 36.73 64.35 35.86 63.12 33.55L60.08 27.88L56.29 36.21L56.66 36.91C58.64 40.69 62.56 43.27 67.08 43.27C73.58 43.27 78.86 37.92 78.86 31.32C78.86 29.3 78.36 27.38 77.48 25.71L65 1.91C64.41 0.78 63.22 0 61.86 0L61.83 0C61.81 0 61.79 0 61.77 0C60.4 0.03 59.23 0.83 58.65 1.98L50.63 18L46.85 18L36.63 18L36.62 18C34.66 18 33.06 19.62 33.06 21.62C33.06 23.61 34.66 25.23 36.62 25.23L36.63 25.23L46.87 25.23C44.22 36.16 29.73 40.12 22.12 30.82C21.49 30.22 20.63 29.86 19.7 29.86C16.7 29.86 15.09 33.36 16.88 35.69C20.79 40.31 26.59 43.24 33.07 43.24C41.45 43.24 48.71 38.33 52.19 31.19L52.19 31.19Z" fill="#FFFFFF" fill-opacity="1.000000" fill-rule="evenodd"/>
</svg>
